<?xml version="1.0" encoding="utf-8"?>
<!-- Generator: Adobe Illustrator 19.2.0, SVG Export Plug-In . SVG Version: 6.00 Build 0)  -->
<svg version="1.1" id="Layer_1" xmlns="http://www.w3.org/2000/svg" xmlns:xlink="http://www.w3.org/1999/xlink" x="0px" y="0px"
	 viewBox="0 0 50 50" style="enable-background:new 0 0 50 50;" xml:space="preserve">
<style type="text/css">
	.st0{fill:#F04C33;}
	.st1{fill:none;}
	.st2{fill:#F16043;}
	.st3{fill:#BD2026;}
	.st4{fill:#ED2024;}
	.st5{fill:#D31F26;}
	.st6{fill:#941A1D;}
	.st7{fill:#D32027;}
	.st8{fill:#A3A5A8;}
	.st9{fill:#9EA0A4;}
	.st10{fill:#D2D5D4;}
	.st11{fill:#A0957F;}
	.st12{fill:#FFFFFF;}
	.st13{fill:#A8782B;}
	.st14{fill:#7E5B25;}
	.st15{fill:#7E5A24;}
	.st16{fill:#BE7B2A;}
	.st17{fill:#543A14;}
	.st18{fill:#D9F0F6;}
	.st19{fill:#936126;}
	.st20{fill:#543F17;}
	.st21{fill:#2A2412;}
	.st22{fill:#3D2C12;}
	.st23{fill:#C8E8EB;}
	.st24{fill:none;stroke:#3C2415;stroke-width:0.5;stroke-miterlimit:10;}
	.st25{fill:#6A4C1E;stroke:#3C2415;stroke-width:0.25;stroke-miterlimit:10;}
</style>
<g id="XMLID_1_">
	<g>
		<rect x="16.1" y="25.5" class="st0" width="10.1" height="15.3"/>
	</g>
	<g>
	</g>
</g>
<g>
	<rect x="9.8" y="16.5" class="st1" width="1" height="0.7"/>
	<line class="st1" x1="9.8" y1="17.2" x2="10.8" y2="17.2"/>
	<line class="st1" x1="9.8" y1="17.1" x2="10.8" y2="17.1"/>
	<line class="st1" x1="9.8" y1="17.1" x2="10.8" y2="17.1"/>
	<line class="st1" x1="9.8" y1="17.1" x2="10.8" y2="17.1"/>
	<line class="st1" x1="9.8" y1="17" x2="10.8" y2="17"/>
	<line class="st1" x1="9.8" y1="17" x2="10.8" y2="17"/>
	<line class="st1" x1="9.8" y1="17" x2="10.8" y2="17"/>
	<line class="st1" x1="9.8" y1="16.9" x2="10.8" y2="16.9"/>
	<line class="st1" x1="9.8" y1="16.9" x2="10.8" y2="16.9"/>
	<line class="st1" x1="9.8" y1="16.9" x2="10.8" y2="16.9"/>
	<line class="st1" x1="9.8" y1="16.8" x2="10.8" y2="16.8"/>
	<line class="st1" x1="9.8" y1="16.8" x2="10.8" y2="16.8"/>
	<line class="st1" x1="9.8" y1="16.8" x2="10.8" y2="16.8"/>
	<line class="st1" x1="9.8" y1="16.7" x2="10.8" y2="16.7"/>
	<line class="st1" x1="9.8" y1="16.7" x2="10.8" y2="16.7"/>
	<line class="st1" x1="9.8" y1="16.7" x2="10.8" y2="16.7"/>
	<line class="st1" x1="9.8" y1="16.6" x2="10.8" y2="16.6"/>
	<line class="st1" x1="9.8" y1="16.6" x2="10.8" y2="16.6"/>
	<line class="st1" x1="9.8" y1="16.6" x2="10.8" y2="16.6"/>
	<line class="st1" x1="9.8" y1="16.5" x2="10.8" y2="16.5"/>
	<line class="st1" x1="10.8" y1="16.5" x2="10.8" y2="17.2"/>
	<line class="st1" x1="10.7" y1="16.5" x2="10.7" y2="17.2"/>
	<line class="st1" x1="10.7" y1="16.5" x2="10.7" y2="17.2"/>
	<line class="st1" x1="10.6" y1="16.5" x2="10.6" y2="17.2"/>
	<line class="st1" x1="10.6" y1="16.5" x2="10.6" y2="17.2"/>
	<line class="st1" x1="10.5" y1="16.5" x2="10.5" y2="17.2"/>
	<line class="st1" x1="10.5" y1="16.5" x2="10.5" y2="17.2"/>
	<line class="st1" x1="10.4" y1="16.5" x2="10.4" y2="17.2"/>
	<line class="st1" x1="10.4" y1="16.5" x2="10.4" y2="17.2"/>
	<line class="st1" x1="10.3" y1="16.5" x2="10.3" y2="17.2"/>
	<line class="st1" x1="10.3" y1="16.5" x2="10.3" y2="17.2"/>
	<line class="st1" x1="10.2" y1="16.5" x2="10.2" y2="17.2"/>
	<line class="st1" x1="10.2" y1="16.5" x2="10.2" y2="17.2"/>
	<line class="st1" x1="10.1" y1="16.5" x2="10.1" y2="17.2"/>
	<line class="st1" x1="10.1" y1="16.5" x2="10.1" y2="17.2"/>
	<line class="st1" x1="10.1" y1="16.5" x2="10.1" y2="17.2"/>
	<line class="st1" x1="10" y1="16.5" x2="10" y2="17.2"/>
	<line class="st1" x1="10" y1="16.5" x2="10" y2="17.2"/>
	<line class="st1" x1="9.9" y1="16.5" x2="9.9" y2="17.2"/>
	<line class="st1" x1="9.9" y1="16.5" x2="9.9" y2="17.2"/>
</g>
<g>
	<g id="XMLID_2_">
		<g>
			<rect x="17.1" y="27.7" class="st2" width="0.9" height="1.2"/>
			<rect x="18" y="26.6" class="st2" width="0.9" height="1.1"/>
			<rect x="17.1" y="30" class="st2" width="0.9" height="1.1"/>
			<rect x="17.1" y="26.6" class="st2" width="0.9" height="1.1"/>
			<rect x="17.1" y="28.9" class="st2" width="0.9" height="1.1"/>
			<rect x="25.1" y="38.1" class="st3" width="0.9" height="1.1"/>
			<rect x="25.1" y="35.8" class="st4" width="0.9" height="1.1"/>
			<rect x="25.1" y="34.6" class="st5" width="0.9" height="1.1"/>
			<rect x="25.1" y="33.5" class="st5" width="0.9" height="1.1"/>
			<rect x="25.1" y="32.3" class="st5" width="0.9" height="1.2"/>
			<rect x="25.1" y="31.2" class="st5" width="0.9" height="1.1"/>
			<rect x="25.1" y="30" class="st5" width="0.9" height="1.1"/>
			<rect x="25.1" y="28.9" class="st5" width="0.9" height="1.1"/>
			<rect x="25.1" y="27.7" class="st5" width="0.9" height="1.2"/>
			<rect x="25.1" y="26.6" class="st5" width="0.9" height="1.1"/>
			<rect x="25.1" y="25.4" class="st5" width="0.9" height="1.1"/>
			<rect x="24.3" y="38.1" class="st6" width="0.9" height="1.1"/>
			<rect x="24.3" y="36.9" class="st6" width="0.9" height="1.2"/>
			<rect x="24.3" y="35.8" class="st4" width="0.9" height="1.1"/>
			<rect x="24.3" y="34.6" class="st4" width="0.9" height="1.1"/>
			<rect x="24.3" y="33.5" class="st4" width="0.9" height="1.1"/>
			<rect x="24.3" y="32.3" class="st4" width="0.9" height="1.2"/>
			<rect x="24.3" y="31.2" class="st4" width="0.9" height="1.1"/>
			<rect x="24.3" y="30" class="st4" width="0.9" height="1.1"/>
			<rect x="24.3" y="28.9" class="st4" width="0.9" height="1.1"/>
			<rect x="24.3" y="27.7" class="st4" width="0.9" height="1.2"/>
			<rect x="24.3" y="26.6" class="st4" width="0.9" height="1.1"/>
			<rect x="24.3" y="25.4" width="0.9" height="1.1"/>
			<rect x="23.4" y="36.9" class="st3" width="0.9" height="1.2"/>
			<rect x="23.4" y="35.8" class="st4" width="0.9" height="1.1"/>
			<rect x="23.4" y="34.6" class="st4" width="0.9" height="1.1"/>
			<rect x="23.4" y="33.5" class="st4" width="0.9" height="1.1"/>
			<rect x="23.4" y="25.4" width="0.9" height="1.1"/>
			<rect x="22.5" y="36.9" class="st3" width="0.9" height="1.2"/>
			<rect x="22.5" y="25.4" width="0.9" height="1.1"/>
			<rect x="21.6" y="39.2" class="st6" width="0.9" height="1.1"/>
			<rect x="21.6" y="38.1" class="st6" width="0.9" height="1.1"/>
			<rect x="21.6" y="36.9" class="st3" width="0.9" height="1.2"/>
			<rect x="21.6" y="25.4" width="0.9" height="1.1"/>
			<rect x="20.7" y="38.1" class="st3" width="0.9" height="1.1"/>
			<rect x="20.7" y="36.9" class="st6" width="0.9" height="1.2"/>
			<rect x="20.7" y="25.4" width="0.9" height="1.1"/>
			<rect x="19.8" y="36.9" class="st6" width="0.9" height="1.2"/>
			<rect x="19.8" y="25.4" width="0.9" height="1.1"/>
			<rect x="18.9" y="36.9" class="st3" width="0.9" height="1.2"/>
			<rect x="18.9" y="25.4" width="0.9" height="1.1"/>
			<rect x="18" y="38.1" class="st6" width="0.9" height="1.1"/>
			<rect x="18" y="36.9" class="st6" width="0.9" height="1.2"/>
			<rect x="18" y="35.8" class="st3" width="0.9" height="1.1"/>
			<rect x="18" y="25.4" width="0.9" height="1.1"/>
			<rect x="17.1" y="38.1" class="st3" width="0.9" height="1.1"/>
			<rect x="17.1" y="36.9" class="st3" width="0.9" height="1.2"/>
			<rect x="17.1" y="35.8" class="st3" width="0.9" height="1.1"/>
			<rect x="17.1" y="25.4" width="0.9" height="1.1"/>
			<rect x="16.2" y="35.8" class="st7" width="0.9" height="1.1"/>
			<rect x="16.2" y="34.6" class="st5" width="0.9" height="1.1"/>
			<rect x="16.2" y="33.5" class="st5" width="0.9" height="1.1"/>
			<rect x="16.2" y="32.3" class="st5" width="0.9" height="1.2"/>
			<rect x="16.2" y="31.2" class="st5" width="0.9" height="1.1"/>
			<rect x="16.2" y="30" class="st5" width="0.9" height="1.1"/>
			<rect x="16.2" y="28.9" class="st5" width="0.9" height="1.1"/>
			<rect x="16.2" y="27.7" class="st5" width="0.9" height="1.2"/>
			<rect x="16.2" y="26.6" class="st5" width="0.9" height="1.1"/>
			<rect x="16.2" y="25.4" class="st5" width="0.9" height="1.1"/>
		</g>
		<g>
		</g>
	</g>
</g>
<rect x="16.1" y="20.5" width="10.1" height="5"/>
<g>
	<g id="XMLID_3_">
		<g>
			<rect x="24.7" y="21.6" class="st8" width="0.8" height="1"/>
			<rect x="24.7" y="20.6" width="0.8" height="1"/>
			<rect x="23.9" y="24.7" class="st9" width="0.8" height="1"/>
			<rect x="23.9" y="23.7" class="st9" width="0.8" height="1"/>
			<rect x="23.9" y="22.6" class="st10" width="0.8" height="1"/>
			<rect x="23.9" y="21.6" width="0.8" height="1"/>
			<rect x="23.9" y="20.6" width="0.8" height="1"/>
			<rect x="23" y="24.7" class="st9" width="0.8" height="1"/>
			<rect x="23" y="23.7" class="st11" width="0.8" height="1"/>
			<rect x="23" y="22.6" class="st10" width="0.8" height="1"/>
			<rect x="23" y="21.6" width="0.8" height="1"/>
			<rect x="23" y="20.6" class="st8" width="0.8" height="1"/>
			<rect x="21.4" y="24.7" class="st11" width="1.7" height="1"/>
			<rect x="21.4" y="23.7" class="st10" width="1.7" height="1"/>
			<rect x="21.4" y="22.6" class="st10" width="1.7" height="1"/>
			<rect x="21.4" y="21.6" width="1.7" height="1"/>
			<rect x="21.4" y="20.6" class="st8" width="1.7" height="1"/>
			<rect x="20.5" y="24.7" class="st10" width="0.8" height="1"/>
			<rect x="20.5" y="23.7" class="st10" width="0.8" height="1"/>
			<rect x="20.5" y="22.6" class="st12" width="0.8" height="1"/>
			<rect x="20.5" y="21.6" width="0.8" height="1"/>
			<rect x="20.5" y="20.6" width="0.8" height="1"/>
			<rect x="20.3" y="24.7" class="st10" width="0.2" height="1"/>
			<rect x="20.3" y="23.7" class="st10" width="0.2" height="1"/>
			<rect x="20.3" y="22.6" class="st12" width="0.2" height="1"/>
			<rect x="20.3" y="21.6" width="0.2" height="1"/>
			<rect x="20.3" y="20.6" class="st8" width="0.2" height="1"/>
			<rect x="19.7" y="24.7" class="st10" width="0.6" height="1"/>
			<rect x="19.7" y="23.7" class="st10" width="0.6" height="1"/>
			<rect x="19.7" y="22.6" class="st12" width="0.6" height="1"/>
			<rect x="19.7" y="21.6" width="0.6" height="1"/>
			<rect x="19.7" y="20.6" class="st8" width="0.6" height="1"/>
			<rect x="18.8" y="24.7" class="st10" width="0.8" height="1"/>
			<rect x="18.8" y="23.7" class="st12" width="0.8" height="1"/>
			<rect x="18.8" y="22.6" class="st12" width="0.8" height="1"/>
			<rect x="18.8" y="21.6" width="0.8" height="1"/>
			<rect x="18.8" y="20.6" width="0.8" height="1"/>
			<rect x="18" y="24.7" class="st10" width="0.8" height="1"/>
			<rect x="18" y="23.7" class="st12" width="0.8" height="1"/>
			<rect x="18" y="22.6" class="st12" width="0.8" height="1"/>
			<rect x="18" y="21.6" width="0.8" height="1"/>
			<rect x="18" y="20.6" class="st8" width="0.8" height="1"/>
			<rect x="17.2" y="21.6" class="st8" width="0.8" height="1"/>
			<rect x="17.2" y="20.6" width="0.8" height="1"/>
		</g>
		<g>
		</g>
	</g>
</g>
<polygon class="st13" points="37.2,6.5 46.5,12.1 28,11.8 "/>
<polygon id="XMLID_5_" class="st14" points="46.3,11.5 46.3,7.7 37.2,2.1 37.2,6.5 "/>
<line class="st15" x1="20.9" y1="23.9" x2="30.2" y2="18.5"/>
<polygon class="st15" points="37.2,2.2 37.2,6.6 27.8,11.5 27.9,7.9 "/>
<g>
	<g id="XMLID_4_">
		<g>
			<rect x="45.5" y="12.5" width="0.8" height="0.9"/>
			<rect x="45.5" y="11.6" width="0.8" height="0.9"/>
			<rect x="44.7" y="12.5" width="0.8" height="0.9"/>
			<rect x="44.7" y="11.6" width="0.8" height="0.9"/>
			<rect x="43.9" y="12.5" width="0.8" height="0.9"/>
			<rect x="43.9" y="11.6" width="0.8" height="0.9"/>
			<rect x="43.1" y="12.5" width="0.8" height="0.9"/>
			<rect x="43.1" y="11.6" width="0.8" height="0.9"/>
			<rect x="42.3" y="12.5" width="0.8" height="0.9"/>
			<rect x="42.3" y="11.6" width="0.8" height="0.9"/>
			<rect x="41.5" y="12.5" width="0.8" height="0.9"/>
			<rect x="41.5" y="11.6" width="0.8" height="0.9"/>
			<rect x="40.7" y="12.5" width="0.8" height="0.9"/>
			<rect x="40.7" y="11.6" width="0.8" height="0.9"/>
			<rect x="39.9" y="12.5" width="0.8" height="0.9"/>
			<rect x="39.9" y="11.6" width="0.8" height="0.9"/>
			<rect x="39.1" y="12.5" width="0.8" height="0.9"/>
			<rect x="39.1" y="11.6" width="0.8" height="0.9"/>
			<rect x="38.3" y="12.5" width="0.8" height="0.9"/>
			<rect x="38.3" y="11.6" width="0.8" height="0.9"/>
			<rect x="37.5" y="12.5" width="0.8" height="0.9"/>
			<rect x="37.5" y="11.6" width="0.8" height="0.9"/>
			<rect x="36.7" y="12.5" width="0.8" height="0.9"/>
			<rect x="36.7" y="11.6" width="0.8" height="0.9"/>
			<rect x="35.9" y="12.5" width="0.8" height="0.9"/>
			<rect x="35.9" y="11.6" width="0.8" height="0.9"/>
			<rect x="35.1" y="12.5" width="0.8" height="0.9"/>
			<rect x="35.1" y="11.6" width="0.8" height="0.9"/>
			<rect x="34.3" y="12.5" width="0.8" height="0.9"/>
			<rect x="34.3" y="11.6" width="0.8" height="0.9"/>
			<rect x="33.5" y="12.5" width="0.8" height="0.9"/>
			<rect x="33.5" y="11.6" width="0.8" height="0.9"/>
			<rect x="32.7" y="12.5" width="0.8" height="0.9"/>
			<rect x="32.7" y="11.6" width="0.8" height="0.9"/>
			<rect x="31.9" y="12.5" width="0.8" height="0.9"/>
			<rect x="31.9" y="11.6" width="0.8" height="0.9"/>
			<rect x="31.9" y="6.2" class="st16" width="0.8" height="0.9"/>
			<rect x="31.1" y="12.5" width="0.8" height="0.9"/>
			<rect x="31.1" y="11.6" width="0.8" height="0.9"/>
			<rect x="31.1" y="7.1" class="st16" width="0.8" height="0.9"/>
			<rect x="31.1" y="6.2" class="st16" width="0.8" height="0.9"/>
			<rect x="30.3" y="12.5" width="0.8" height="0.9"/>
			<rect x="30.3" y="11.6" width="0.8" height="0.9"/>
			<rect x="30.3" y="7.1" class="st16" width="0.8" height="0.9"/>
			<rect x="29.5" y="12.5" width="0.8" height="0.9"/>
			<rect x="29.5" y="11.6" width="0.8" height="0.9"/>
			<rect x="28.7" y="12.5" width="0.8" height="0.9"/>
			<rect x="28.7" y="11.6" width="0.8" height="0.9"/>
			<rect x="27.9" y="12.5" width="0.8" height="0.9"/>
			<rect x="27.9" y="11.6" width="0.8" height="0.9"/>
		</g>
		<g>
		</g>
	</g>
</g>
<rect x="27.8" y="12.7" class="st17" width="18.5" height="8.8"/>
<g>
	<g id="XMLID_7_">
		<g>
			<rect x="44.8" y="17.4" width="0.4" height="0.5"/>
			<rect x="44.8" y="16.9" width="0.4" height="0.5"/>
			<rect x="44.8" y="16.4" width="0.4" height="0.5"/>
			<rect x="44.8" y="16" width="0.4" height="0.5"/>
			<rect x="44.8" y="15.5" width="0.4" height="0.5"/>
			<rect x="44.4" y="17.8" width="0.4" height="0.5"/>
			<rect x="44.4" y="17.4" class="st12" width="0.4" height="0.5"/>
			<rect x="44.4" y="16.9" class="st12" width="0.4" height="0.5"/>
			<rect x="44.4" y="16.4" class="st12" width="0.4" height="0.5"/>
			<rect x="44.4" y="16" class="st12" width="0.4" height="0.5"/>
			<rect x="44.4" y="15.5" width="0.4" height="0.5"/>
			<rect x="44" y="18.3" width="0.4" height="0.5"/>
			<rect x="44" y="17.8" class="st12" width="0.4" height="0.5"/>
			<rect x="44" y="17.4" class="st18" width="0.4" height="0.5"/>
			<rect x="44" y="16.9" class="st18" width="0.4" height="0.5"/>
			<rect x="44" y="16.4" class="st12" width="0.4" height="0.5"/>
			<rect x="44" y="16" class="st12" width="0.4" height="0.5"/>
			<rect x="44" y="15.5" width="0.4" height="0.5"/>
			<rect x="43.6" y="18.3" width="0.4" height="0.5"/>
			<rect x="43.6" y="17.8" class="st18" width="0.4" height="0.5"/>
			<rect x="43.6" y="17.4" class="st12" width="0.4" height="0.5"/>
			<rect x="43.6" y="16.9" class="st12" width="0.4" height="0.5"/>
			<rect x="43.6" y="16.4" class="st18" width="0.4" height="0.5"/>
			<rect x="43.6" y="16" class="st12" width="0.4" height="0.5"/>
			<rect x="43.6" y="15.5" width="0.4" height="0.5"/>
			<rect x="43.3" y="18.3" width="0.4" height="0.5"/>
			<rect x="43.3" y="17.8" class="st12" width="0.4" height="0.5"/>
			<rect x="43.3" y="17.4" class="st12" width="0.4" height="0.5"/>
			<rect x="43.3" y="16.9" class="st12" width="0.4" height="0.5"/>
			<rect x="43.3" y="16.4" class="st12" width="0.4" height="0.5"/>
			<rect x="43.3" y="16" class="st12" width="0.4" height="0.5"/>
			<rect x="43.3" y="15.5" width="0.4" height="0.5"/>
			<rect x="42.9" y="18.3" width="0.4" height="0.5"/>
			<rect x="42.9" y="17.8" class="st12" width="0.4" height="0.5"/>
			<rect x="42.9" y="17.4" class="st12" width="0.4" height="0.5"/>
			<rect x="42.9" y="16.9" class="st12" width="0.4" height="0.5"/>
			<rect x="42.9" y="16.4" class="st12" width="0.4" height="0.5"/>
			<rect x="42.9" y="16" class="st12" width="0.4" height="0.5"/>
			<rect x="42.9" y="15.5" width="0.4" height="0.5"/>
			<rect x="42.5" y="17.8" width="0.4" height="0.5"/>
			<rect x="42.5" y="17.4" class="st12" width="0.4" height="0.5"/>
			<rect x="42.5" y="16.9" class="st12" width="0.4" height="0.5"/>
			<rect x="42.5" y="16.4" class="st12" width="0.4" height="0.5"/>
			<rect x="42.5" y="16" class="st12" width="0.4" height="0.5"/>
			<rect x="42.5" y="15.5" width="0.4" height="0.5"/>
			<rect x="42.1" y="17.4" width="0.4" height="0.5"/>
			<rect x="42.1" y="16.9" width="0.4" height="0.5"/>
			<rect x="42.1" y="16.4" width="0.4" height="0.5"/>
			<rect x="42.1" y="16" width="0.4" height="0.5"/>
			<rect x="42.1" y="15.5" width="0.4" height="0.5"/>
			<rect x="39.7" y="21" class="st19" width="0.4" height="0.5"/>
			<rect x="39.7" y="20.6" class="st19" width="0.4" height="0.5"/>
			<rect x="39.7" y="20.1" class="st19" width="0.4" height="0.5"/>
			<rect x="39.7" y="19.7" class="st19" width="0.4" height="0.5"/>
			<rect x="39.7" y="19.2" class="st19" width="0.4" height="0.5"/>
			<rect x="39.7" y="18.7" class="st19" width="0.4" height="0.5"/>
			<rect x="39.7" y="18.3" class="st19" width="0.4" height="0.5"/>
			<rect x="39.7" y="17.8" class="st19" width="0.4" height="0.5"/>
			<rect x="39.7" y="17.4" class="st19" width="0.4" height="0.5"/>
			<rect x="39.7" y="16.9" class="st19" width="0.4" height="0.5"/>
			<rect x="39.7" y="16.4" class="st19" width="0.4" height="0.5"/>
			<rect x="39.7" y="16" class="st19" width="0.4" height="0.5"/>
			<rect x="39.7" y="15.5" class="st19" width="0.4" height="0.5"/>
			<rect x="39.3" y="21" class="st20" width="0.4" height="0.5"/>
			<rect x="39.3" y="20.6" class="st20" width="0.4" height="0.5"/>
			<rect x="39.3" y="20.1" class="st20" width="0.4" height="0.5"/>
			<rect x="39.3" y="19.7" class="st20" width="0.4" height="0.5"/>
			<rect x="39.3" y="19.2" class="st20" width="0.4" height="0.5"/>
			<rect x="39.3" y="18.7" class="st20" width="0.4" height="0.5"/>
			<rect x="39.3" y="18.3" class="st20" width="0.4" height="0.5"/>
			<rect x="39.3" y="17.8" class="st20" width="0.4" height="0.5"/>
			<rect x="39.3" y="17.4" class="st20" width="0.4" height="0.5"/>
			<rect x="39.3" y="16.9" class="st20" width="0.4" height="0.5"/>
			<rect x="39.3" y="16.4" class="st20" width="0.4" height="0.5"/>
			<rect x="39.3" y="16" class="st21" width="0.4" height="0.5"/>
			<rect x="39.3" y="15.5" class="st19" width="0.4" height="0.5"/>
			<rect x="39.3" y="15" class="st19" width="0.4" height="0.5"/>
			<rect x="38.9" y="21" class="st20" width="0.4" height="0.5"/>
			<rect x="38.9" y="20.6" class="st20" width="0.4" height="0.5"/>
			<rect x="38.9" y="20.1" class="st20" width="0.4" height="0.5"/>
			<rect x="38.9" y="19.7" class="st20" width="0.4" height="0.5"/>
			<rect x="38.9" y="19.2" width="0.4" height="0.5"/>
			<rect x="38.9" y="18.7" width="0.4" height="0.5"/>
			<rect x="38.9" y="18.3" width="0.4" height="0.5"/>
			<rect x="38.9" y="17.8" class="st20" width="0.4" height="0.5"/>
			<rect x="38.9" y="17.4" class="st20" width="0.4" height="0.5"/>
			<rect x="38.9" y="16.9" class="st20" width="0.4" height="0.5"/>
			<rect x="38.9" y="16.4" class="st20" width="0.4" height="0.5"/>
			<rect x="38.9" y="16" class="st21" width="0.4" height="0.5"/>
			<rect x="38.9" y="15.5" class="st22" width="0.4" height="0.5"/>
			<rect x="38.9" y="15" class="st19" width="0.4" height="0.5"/>
			<rect x="38.9" y="14.6" class="st19" width="0.4" height="0.5"/>
			<rect x="38.5" y="21" class="st20" width="0.4" height="0.5"/>
			<rect x="38.5" y="20.6" class="st20" width="0.4" height="0.5"/>
			<rect x="38.5" y="20.1" class="st20" width="0.4" height="0.5"/>
			<rect x="38.5" y="19.7" class="st20" width="0.4" height="0.5"/>
			<rect x="38.5" y="19.2" width="0.4" height="0.5"/>
			<rect x="38.5" y="18.7" class="st20" width="0.4" height="0.5"/>
			<rect x="38.5" y="18.3" width="0.4" height="0.5"/>
			<rect x="38.5" y="17.8" class="st20" width="0.4" height="0.5"/>
			<rect x="38.5" y="17.4" class="st20" width="0.4" height="0.5"/>
			<rect x="38.5" y="16.9" class="st20" width="0.4" height="0.5"/>
			<rect x="38.5" y="16.4" class="st20" width="0.4" height="0.5"/>
			<rect x="38.5" y="16" class="st21" width="0.4" height="0.5"/>
			<rect x="38.5" y="15.5" class="st22" width="0.4" height="0.5"/>
			<rect x="38.5" y="15" class="st22" width="0.4" height="0.5"/>
			<rect x="38.5" y="14.6" class="st19" width="0.4" height="0.5"/>
			<rect x="38.5" y="14.1" class="st19" width="0.4" height="0.5"/>
			<rect x="38.2" y="21" class="st20" width="0.4" height="0.5"/>
			<rect x="38.2" y="20.6" class="st20" width="0.4" height="0.5"/>
			<rect x="38.2" y="20.1" class="st20" width="0.4" height="0.5"/>
			<rect x="38.2" y="19.7" class="st20" width="0.4" height="0.5"/>
			<rect x="38.2" y="19.2" class="st20" width="0.4" height="0.5"/>
			<rect x="38.2" y="18.7" class="st20" width="0.4" height="0.5"/>
			<rect x="38.2" y="18.3" class="st20" width="0.4" height="0.5"/>
			<rect x="38.2" y="17.8" class="st20" width="0.4" height="0.5"/>
			<rect x="38.2" y="17.4" class="st20" width="0.4" height="0.5"/>
			<rect x="38.2" y="16.9" class="st20" width="0.4" height="0.5"/>
			<rect x="38.2" y="16.4" class="st20" width="0.4" height="0.5"/>
			<rect x="38.2" y="16" class="st21" width="0.4" height="0.5"/>
			<rect x="38.2" y="15.5" class="st22" width="0.4" height="0.5"/>
			<rect x="38.2" y="15" class="st22" width="0.4" height="0.5"/>
			<rect x="38.2" y="14.6" class="st22" width="0.4" height="0.5"/>
			<rect x="38.2" y="14.1" class="st19" width="0.4" height="0.5"/>
			<rect x="38.2" y="10" width="0.4" height="0.5"/>
			<rect x="38.2" y="9.5" width="0.4" height="0.5"/>
			<rect x="38.2" y="9" width="0.4" height="0.5"/>
			<rect x="38.2" y="8.6" width="0.4" height="0.5"/>
			<rect x="37.8" y="21" class="st20" width="0.4" height="0.5"/>
			<rect x="37.8" y="20.6" class="st20" width="0.4" height="0.5"/>
			<rect x="37.8" y="20.1" class="st20" width="0.4" height="0.5"/>
			<rect x="37.8" y="19.7" class="st20" width="0.4" height="0.5"/>
			<rect x="37.8" y="19.2" class="st20" width="0.4" height="0.5"/>
			<rect x="37.8" y="18.7" class="st20" width="0.4" height="0.5"/>
			<rect x="37.8" y="18.3" class="st20" width="0.4" height="0.5"/>
			<rect x="37.8" y="17.8" class="st20" width="0.4" height="0.5"/>
			<rect x="37.8" y="17.4" class="st20" width="0.4" height="0.5"/>
			<rect x="37.8" y="16.9" class="st20" width="0.4" height="0.5"/>
			<rect x="37.8" y="16.4" class="st20" width="0.4" height="0.5"/>
			<rect x="37.8" y="16" class="st21" width="0.4" height="0.5"/>
			<rect x="37.8" y="15.5" class="st22" width="0.4" height="0.5"/>
			<rect x="37.8" y="15" class="st22" width="0.4" height="0.5"/>
			<rect x="37.8" y="14.6" class="st22" width="0.4" height="0.5"/>
			<rect x="37.8" y="14.1" class="st19" width="0.4" height="0.5"/>
			<rect x="37.8" y="10.4" width="0.4" height="0.5"/>
			<rect x="37.8" y="10" class="st12" width="0.4" height="0.5"/>
			<rect x="37.8" y="9.5" class="st12" width="0.4" height="0.5"/>
			<rect x="37.8" y="9" class="st12" width="0.4" height="0.5"/>
			<rect x="37.8" y="8.6" class="st12" width="0.4" height="0.5"/>
			<rect x="37.8" y="8.1" width="0.4" height="0.5"/>
			<rect x="37.4" y="21" class="st20" width="0.4" height="0.5"/>
			<rect x="37.4" y="20.6" class="st20" width="0.4" height="0.5"/>
			<rect x="37.4" y="20.1" class="st20" width="0.4" height="0.5"/>
			<rect x="37.4" y="19.7" class="st20" width="0.4" height="0.5"/>
			<rect x="37.4" y="19.2" class="st20" width="0.4" height="0.5"/>
			<rect x="37.4" y="18.7" class="st20" width="0.4" height="0.5"/>
			<rect x="37.4" y="18.3" class="st20" width="0.4" height="0.5"/>
			<rect x="37.4" y="17.8" class="st20" width="0.4" height="0.5"/>
			<rect x="37.4" y="17.4" class="st20" width="0.4" height="0.5"/>
			<rect x="37.4" y="16.9" class="st20" width="0.4" height="0.5"/>
			<rect x="37.4" y="16.4" class="st20" width="0.4" height="0.5"/>
			<rect x="37.4" y="16" class="st21" width="0.4" height="0.5"/>
			<rect x="37.4" y="15.5" class="st22" width="0.4" height="0.5"/>
			<rect x="37.4" y="15" class="st22" width="0.4" height="0.5"/>
			<rect x="37.4" y="14.6" class="st22" width="0.4" height="0.5"/>
			<rect x="37.4" y="14.1" class="st19" width="0.4" height="0.5"/>
			<rect x="37.4" y="10.4" width="0.4" height="0.5"/>
			<rect x="37.4" y="10" class="st12" width="0.4" height="0.5"/>
			<rect x="37.4" y="9.5" class="st23" width="0.4" height="0.5"/>
			<rect x="37.4" y="9" class="st23" width="0.4" height="0.5"/>
			<rect x="37.4" y="8.6" class="st12" width="0.4" height="0.5"/>
			<rect x="37.4" y="8.1" width="0.4" height="0.5"/>
			<rect x="37" y="21" class="st20" width="0.4" height="0.5"/>
			<rect x="37" y="20.6" class="st20" width="0.4" height="0.5"/>
			<rect x="37" y="20.1" class="st20" width="0.4" height="0.5"/>
			<rect x="37" y="19.7" class="st20" width="0.4" height="0.5"/>
			<rect x="37" y="19.2" class="st20" width="0.4" height="0.5"/>
			<rect x="37" y="18.7" class="st20" width="0.4" height="0.5"/>
			<rect x="37" y="18.3" class="st20" width="0.4" height="0.5"/>
			<rect x="37" y="17.8" class="st20" width="0.4" height="0.5"/>
			<rect x="37" y="17.4" class="st20" width="0.4" height="0.5"/>
			<rect x="37" y="16.9" class="st20" width="0.4" height="0.5"/>
			<rect x="37" y="16.4" class="st20" width="0.4" height="0.5"/>
			<rect x="37" y="16" class="st21" width="0.4" height="0.5"/>
			<rect x="37" y="15.5" class="st22" width="0.4" height="0.5"/>
			<rect x="37" y="15" class="st22" width="0.4" height="0.5"/>
			<rect x="37" y="14.6" class="st22" width="0.4" height="0.5"/>
			<rect x="37" y="14.1" class="st19" width="0.4" height="0.5"/>
			<rect x="37" y="10.4" width="0.4" height="0.5"/>
			<rect x="37" y="10" class="st23" width="0.4" height="0.5"/>
			<rect x="37" y="9.5" class="st12" width="0.4" height="0.5"/>
			<rect x="37" y="9" class="st12" width="0.4" height="0.5"/>
			<rect x="37" y="8.6" class="st23" width="0.4" height="0.5"/>
			<rect x="37" y="8.1" width="0.4" height="0.5"/>
			<rect x="36.6" y="21" class="st20" width="0.4" height="0.5"/>
			<rect x="36.6" y="20.6" class="st20" width="0.4" height="0.5"/>
			<rect x="36.6" y="20.1" class="st20" width="0.4" height="0.5"/>
			<rect x="36.6" y="19.7" class="st20" width="0.4" height="0.5"/>
			<rect x="36.6" y="19.2" class="st20" width="0.4" height="0.5"/>
			<rect x="36.6" y="18.7" class="st20" width="0.4" height="0.5"/>
			<rect x="36.6" y="18.3" class="st20" width="0.4" height="0.5"/>
			<rect x="36.6" y="17.8" class="st20" width="0.4" height="0.5"/>
			<rect x="36.6" y="17.4" class="st20" width="0.4" height="0.5"/>
			<rect x="36.6" y="16.9" class="st20" width="0.4" height="0.5"/>
			<rect x="36.6" y="16.4" class="st20" width="0.4" height="0.5"/>
			<rect x="36.6" y="16" class="st21" width="0.4" height="0.5"/>
			<rect x="36.6" y="15.5" class="st22" width="0.4" height="0.5"/>
			<rect x="36.6" y="15" class="st22" width="0.4" height="0.5"/>
			<rect x="36.6" y="14.6" class="st22" width="0.4" height="0.5"/>
			<rect x="36.6" y="14.1" class="st19" width="0.4" height="0.5"/>
			<rect x="36.6" y="10.4" width="0.4" height="0.5"/>
			<rect x="36.6" y="10" class="st12" width="0.4" height="0.5"/>
			<rect x="36.6" y="9.5" class="st12" width="0.4" height="0.5"/>
			<rect x="36.6" y="9" class="st12" width="0.4" height="0.5"/>
			<rect x="36.6" y="8.6" class="st12" width="0.4" height="0.5"/>
			<rect x="36.6" y="8.1" width="0.4" height="0.5"/>
			<rect x="36.2" y="21" class="st20" width="0.4" height="0.5"/>
			<rect x="36.2" y="20.6" class="st20" width="0.4" height="0.5"/>
			<rect x="36.2" y="20.1" class="st20" width="0.4" height="0.5"/>
			<rect x="36.2" y="19.7" class="st20" width="0.4" height="0.5"/>
			<rect x="36.2" y="19.2" class="st20" width="0.4" height="0.5"/>
			<rect x="36.2" y="18.7" class="st20" width="0.4" height="0.5"/>
			<rect x="36.2" y="18.3" class="st20" width="0.4" height="0.5"/>
			<rect x="36.2" y="17.8" class="st20" width="0.4" height="0.5"/>
			<rect x="36.2" y="17.4" class="st20" width="0.4" height="0.5"/>
			<rect x="36.2" y="16.9" class="st20" width="0.4" height="0.5"/>
			<rect x="36.2" y="16.4" class="st20" width="0.4" height="0.5"/>
			<rect x="36.2" y="16" class="st21" width="0.4" height="0.5"/>
			<rect x="36.2" y="15.5" class="st22" width="0.4" height="0.5"/>
			<rect x="36.2" y="15" class="st22" width="0.4" height="0.5"/>
			<rect x="36.2" y="14.6" class="st22" width="0.4" height="0.5"/>
			<rect x="36.2" y="14.1" class="st19" width="0.4" height="0.5"/>
			<rect x="36.2" y="10.4" width="0.4" height="0.5"/>
			<rect x="36.2" y="10" class="st12" width="0.4" height="0.5"/>
			<rect x="36.2" y="9.5" class="st12" width="0.4" height="0.5"/>
			<rect x="36.2" y="9" class="st12" width="0.4" height="0.5"/>
			<rect x="36.2" y="8.6" class="st12" width="0.4" height="0.5"/>
			<rect x="36.2" y="8.1" width="0.4" height="0.5"/>
			<rect x="35.8" y="21" class="st20" width="0.4" height="0.5"/>
			<rect x="35.8" y="20.6" class="st20" width="0.4" height="0.5"/>
			<rect x="35.8" y="20.1" class="st20" width="0.4" height="0.5"/>
			<rect x="35.8" y="19.7" class="st20" width="0.4" height="0.5"/>
			<rect x="35.8" y="19.2" class="st20" width="0.4" height="0.5"/>
			<rect x="35.8" y="18.7" class="st20" width="0.4" height="0.5"/>
			<rect x="35.8" y="18.3" class="st20" width="0.4" height="0.5"/>
			<rect x="35.8" y="17.8" class="st20" width="0.4" height="0.5"/>
			<rect x="35.8" y="17.4" class="st20" width="0.4" height="0.5"/>
			<rect x="35.8" y="16.9" class="st20" width="0.4" height="0.5"/>
			<rect x="35.8" y="16.4" class="st20" width="0.4" height="0.5"/>
			<rect x="35.8" y="16" class="st21" width="0.4" height="0.5"/>
			<rect x="35.8" y="15.5" class="st22" width="0.4" height="0.5"/>
			<rect x="35.8" y="15" class="st22" width="0.4" height="0.5"/>
			<rect x="35.8" y="14.6" class="st22" width="0.4" height="0.5"/>
			<rect x="35.8" y="14.1" class="st19" width="0.4" height="0.5"/>
			<rect x="35.8" y="10" width="0.4" height="0.5"/>
			<rect x="35.8" y="9.5" width="0.4" height="0.5"/>
			<rect x="35.8" y="9" width="0.4" height="0.5"/>
			<rect x="35.8" y="8.6" width="0.4" height="0.5"/>
			<rect x="35.4" y="21" class="st20" width="0.4" height="0.5"/>
			<rect x="35.4" y="20.6" class="st20" width="0.4" height="0.5"/>
			<rect x="35.4" y="20.1" class="st20" width="0.4" height="0.5"/>
			<rect x="35.4" y="19.7" class="st20" width="0.4" height="0.5"/>
			<rect x="35.4" y="19.2" class="st20" width="0.4" height="0.5"/>
			<rect x="35.4" y="18.7" class="st20" width="0.4" height="0.5"/>
			<rect x="35.4" y="18.3" class="st20" width="0.4" height="0.5"/>
			<rect x="35.4" y="17.8" class="st20" width="0.4" height="0.5"/>
			<rect x="35.4" y="17.4" class="st20" width="0.4" height="0.5"/>
			<rect x="35.4" y="16.9" class="st20" width="0.4" height="0.5"/>
			<rect x="35.4" y="16.4" class="st20" width="0.4" height="0.5"/>
			<rect x="35.4" y="16" class="st21" width="0.4" height="0.5"/>
			<rect x="35.4" y="15.5" class="st22" width="0.4" height="0.5"/>
			<rect x="35.4" y="15" class="st22" width="0.4" height="0.5"/>
			<rect x="35.4" y="14.6" class="st19" width="0.4" height="0.5"/>
			<rect x="35.4" y="14.1" class="st19" width="0.4" height="0.5"/>
			<rect x="35" y="21" class="st20" width="0.4" height="0.5"/>
			<rect x="35" y="20.6" class="st20" width="0.4" height="0.5"/>
			<rect x="35" y="20.1" class="st20" width="0.4" height="0.5"/>
			<rect x="35" y="19.7" class="st20" width="0.4" height="0.5"/>
			<rect x="35" y="19.2" class="st20" width="0.4" height="0.5"/>
			<rect x="35" y="18.7" class="st20" width="0.4" height="0.5"/>
			<rect x="35" y="18.3" class="st20" width="0.4" height="0.5"/>
			<rect x="35" y="17.8" class="st20" width="0.4" height="0.5"/>
			<rect x="35" y="17.4" class="st20" width="0.4" height="0.5"/>
			<rect x="35" y="16.9" class="st20" width="0.4" height="0.5"/>
			<rect x="35" y="16.4" class="st20" width="0.4" height="0.5"/>
			<rect x="35" y="16" class="st21" width="0.4" height="0.5"/>
			<rect x="35" y="15.5" class="st22" width="0.4" height="0.5"/>
			<rect x="35" y="15" class="st19" width="0.4" height="0.5"/>
			<rect x="35" y="14.6" class="st19" width="0.4" height="0.5"/>
			<rect x="34.6" y="21" class="st20" width="0.4" height="0.5"/>
			<rect x="34.6" y="20.6" class="st20" width="0.4" height="0.5"/>
			<rect x="34.6" y="20.1" class="st20" width="0.4" height="0.5"/>
			<rect x="34.6" y="19.7" class="st20" width="0.4" height="0.5"/>
			<rect x="34.6" y="19.2" class="st20" width="0.4" height="0.5"/>
			<rect x="34.6" y="18.7" class="st20" width="0.4" height="0.5"/>
			<rect x="34.6" y="18.3" class="st20" width="0.4" height="0.5"/>
			<rect x="34.6" y="17.8" class="st20" width="0.4" height="0.5"/>
			<rect x="34.6" y="17.4" class="st20" width="0.4" height="0.5"/>
			<rect x="34.6" y="16.9" class="st20" width="0.4" height="0.5"/>
			<rect x="34.6" y="16.4" class="st20" width="0.4" height="0.5"/>
			<rect x="34.6" y="16" class="st21" width="0.4" height="0.5"/>
			<rect x="34.6" y="15.5" class="st19" width="0.4" height="0.5"/>
			<rect x="34.6" y="15" class="st19" width="0.4" height="0.5"/>
			<rect x="34.2" y="21" class="st19" width="0.4" height="0.5"/>
			<rect x="34.2" y="20.6" class="st19" width="0.4" height="0.5"/>
			<rect x="34.2" y="20.1" class="st19" width="0.4" height="0.5"/>
			<rect x="34.2" y="19.7" class="st19" width="0.4" height="0.5"/>
			<rect x="34.2" y="19.2" class="st19" width="0.4" height="0.5"/>
			<rect x="34.2" y="18.7" class="st19" width="0.4" height="0.5"/>
			<rect x="34.2" y="18.3" class="st19" width="0.4" height="0.5"/>
			<rect x="34.2" y="17.8" class="st19" width="0.4" height="0.5"/>
			<rect x="34.2" y="17.4" class="st19" width="0.4" height="0.5"/>
			<rect x="34.2" y="16.9" class="st19" width="0.4" height="0.5"/>
			<rect x="34.2" y="16.4" class="st19" width="0.4" height="0.5"/>
			<rect x="34.2" y="16" class="st19" width="0.4" height="0.5"/>
			<rect x="34.2" y="15.5" class="st19" width="0.4" height="0.5"/>
		</g>
		<g>
		</g>
	</g>
</g>
<line class="st24" x1="28" y1="11.6" x2="37.3" y2="6.4"/>
<line class="st24" x1="37.1" y1="6.5" x2="46.2" y2="11.6"/>
<line class="st25" x1="37.3" y1="2.2" x2="37.2" y2="6.3"/>
</svg>
